<?xml version="1.0" encoding="UTF-8"?>
<!-- Generated by Pixelmator Pro 3.5.7 -->
<svg width="1024" height="1024" viewBox="0 0 1024 1024" xmlns="http://www.w3.org/2000/svg">
    <g id="Group">
        <g id="Group-dark">
            <g id="middle" opacity="0.850973">
                <path id="red-copy-2" fill="#000000" fill-rule="evenodd" stroke="#000000" stroke-width="195.685455" stroke-linecap="round" stroke-linejoin="round" opacity="0.448941" d="M 401.721283 751.717896 C 401.831329 812.509521 451.201843 861.701599 511.993439 861.591553 C 541.186584 861.538696 569.163025 849.891113 589.768372 829.21106 C 610.373657 808.531006 621.919922 780.512573 621.867065 751.319397 L 621.64563 629.016174 C 621.592773 599.822998 609.94519 571.846558 589.265137 551.241211 C 568.585083 530.635986 540.56665 519.089722 511.373505 519.142578 C 450.581909 519.252563 401.389832 568.623169 401.499878 629.414673 Z"/>
                <path id="red-copy" fill="#000000" fill-rule="evenodd" stroke="#000000" stroke-width="195.685455" stroke-linecap="round" stroke-linejoin="round" opacity="0.448941" d="M 403.65152 394.56543 C 403.761566 455.356995 453.13208 504.549133 513.923645 504.439087 C 543.116821 504.38623 571.093262 492.738586 591.698608 472.058533 C 612.303894 451.37854 623.850159 423.360046 623.797302 394.166931 L 623.575867 271.863708 C 623.52301 242.670532 611.875427 214.694092 591.195374 194.088745 C 570.51532 173.483459 542.496887 161.937195 513.303711 161.990051 C 452.512177 162.100098 403.320068 211.470642 403.430115 272.262207 Z"/>
                <path id="red-copy-5" fill="#000000" fill-rule="evenodd" stroke="#000000" stroke-width="195.685455" stroke-linecap="round" stroke-linejoin="round" opacity="0.448941" d="M 394.19339 610.621338 C 454.985077 610.621338 504.266449 561.339966 504.266449 500.548279 C 504.266449 439.756592 454.985077 390.47522 394.19339 390.47522 L 272.073059 390.47522 C 242.879852 390.47522 214.882355 402.072144 194.239655 422.714844 C 173.596954 443.357544 162 471.355103 162 500.548279 C 162 561.339966 211.281403 610.621338 272.07309 610.621338 Z"/>
                <path id="red-copy-3" fill="#000000" fill-rule="evenodd" stroke="#000000" stroke-width="195.685455" stroke-linecap="round" stroke-linejoin="round" opacity="0.448941" d="M 750.463989 629.682373 C 811.255676 629.682373 860.537048 580.401001 860.537048 519.609314 C 860.537048 458.817627 811.255676 409.536255 750.463989 409.536255 L 628.160583 409.536255 C 598.967407 409.536255 570.969849 421.133179 550.327148 441.775879 C 529.684448 462.418579 518.087524 490.416138 518.087524 519.609314 C 518.087524 580.401001 567.368896 629.682373 628.160583 629.682373 Z"/>
            </g>
            <g id="middle-copy" opacity="0.850973">
                <path id="path1" fill="#000000" fill-rule="evenodd" stroke="#000000" stroke-width="195.685455" stroke-linecap="round" stroke-linejoin="round" opacity="0.448941" d="M 501.775696 775.289673 C 525.141296 831.411621 589.578735 857.965942 645.700684 834.600342 C 672.651428 823.379761 694.040955 801.912598 705.163879 774.921448 C 716.286804 747.930298 716.231934 717.626038 705.011353 690.675293 L 658.003418 577.766602 C 646.782837 550.815918 625.315735 529.426331 598.324524 518.303406 C 571.333374 507.180481 541.029114 507.235352 514.07843 518.455933 C 457.956421 541.821533 431.40213 606.258911 454.767731 662.38092 Z"/>
                <path id="path2" fill="#000000" fill-rule="evenodd" stroke="#000000" stroke-width="195.685455" stroke-linecap="round" stroke-linejoin="round" opacity="0.448941" d="M 366.88266 444.585083 C 390.24826 500.707092 454.685699 527.261353 510.807678 503.895752 C 537.758423 492.675232 559.147949 471.208069 570.270874 444.216919 C 581.393738 417.225708 581.338867 386.921509 570.118347 359.970764 L 523.110352 247.062073 C 511.889801 220.111328 490.422668 198.721802 463.431519 187.598877 C 436.440338 176.475952 406.136078 176.530823 379.185364 187.751404 C 323.063385 211.117004 296.509094 275.554382 319.874695 331.676392 Z"/>
                <path id="path3" fill="#000000" fill-rule="evenodd" stroke="#000000" stroke-width="195.685455" stroke-linecap="round" stroke-linejoin="round" opacity="0.448941" d="M 440.825531 647.814209 C 496.989716 624.550232 523.660583 560.161011 500.396637 503.996826 C 477.13266 447.832642 412.743408 421.161743 356.579224 444.425659 L 243.754776 491.159119 C 216.783768 502.330872 195.355408 523.759277 184.18367 550.730225 C 173.011917 577.701172 173.011917 608.005493 184.18367 634.976501 C 207.447632 691.140686 271.836884 717.811584 328.001068 694.547607 Z"/>
                <path id="path4" fill="#000000" fill-rule="evenodd" stroke="#000000" stroke-width="195.685455" stroke-linecap="round" stroke-linejoin="round" opacity="0.448941" d="M 777.270996 529.085449 C 833.435181 505.821472 860.106079 441.432251 836.842102 385.268066 C 813.578125 329.103882 749.188904 302.432983 693.024719 325.69696 L 580.031067 372.500427 C 553.060059 383.67218 531.631714 405.100586 520.459961 432.071533 C 509.288208 459.042542 509.288208 489.346863 520.459961 516.31781 C 543.723938 572.481995 608.113159 599.152893 664.277344 575.888916 Z"/>
            </g>
            <g id="front" opacity="0.850973">
                <path id="blue-copy-2" fill="#000000" fill-rule="evenodd" stroke="#000000" stroke-width="193.927017" stroke-linecap="round" stroke-linejoin="round" opacity="0.382171" d="M 517.570129 358.18158 C 474.970184 400.781494 474.970184 469.849609 517.570129 512.449585 C 560.170044 555.0495 629.238159 555.0495 671.838074 512.449585 L 757.802734 426.484924 C 778.259949 406.02771 789.752686 378.281799 789.752625 349.350952 C 789.752625 320.420105 778.259888 292.674133 757.802734 272.21698 C 737.34552 251.759766 709.599548 240.267029 680.668701 240.267029 C 651.737854 240.267029 623.991943 251.759766 603.534729 272.21698 Z"/>
                <path id="blue-copy" fill="#000000" fill-rule="evenodd" stroke="#000000" stroke-width="193.927017" stroke-linecap="round" stroke-linejoin="round" opacity="0.382171" d="M 353.453247 504.379944 C 396.053192 546.979858 465.121307 546.979858 507.721252 504.379944 C 550.321167 461.780029 550.321167 392.711853 507.721252 350.111938 L 421.743317 264.134033 C 379.143372 221.534058 310.075226 221.534058 267.475311 264.134033 C 224.875381 306.733948 224.875381 375.802063 267.475311 418.401978 Z"/>
                <path id="blue-copy-4" fill="#000000" fill-rule="evenodd" stroke="#000000" stroke-width="193.927017" stroke-linecap="round" stroke-linejoin="round" opacity="0.382171" d="M 265.62204 605.099731 C 223.022125 647.699707 223.022125 716.767822 265.62204 759.367737 C 308.221985 801.967651 377.290131 801.967651 419.890045 759.367737 L 506.496063 672.761719 C 526.953247 652.304565 538.445984 624.558594 538.445984 595.627747 C 538.445984 566.696899 526.953247 538.950928 506.496063 518.493774 C 463.896118 475.893799 394.827972 475.893799 352.228058 518.493774 Z"/>
                <path id="blue-copy-3" fill="#000000" fill-rule="evenodd" stroke="#000000" stroke-width="193.927017" stroke-linecap="round" stroke-linejoin="round" opacity="0.382171" d="M 597.103149 760.539307 C 639.703064 803.13916 708.77124 803.13916 751.371155 760.539307 C 793.971069 717.939331 793.971069 648.871216 751.371155 606.27124 L 665.098145 519.99823 C 644.64093 499.541016 616.894958 488.048279 587.964111 488.048279 C 559.033264 488.048279 531.287292 499.541016 510.830109 519.99823 C 468.230194 562.598145 468.230194 631.666321 510.830109 674.266235 Z"/>
            </g>
            <g id="front-copy" opacity="0.850973">
                <path id="path5" fill="#000000" fill-rule="evenodd" stroke="#000000" stroke-width="193.927017" stroke-linecap="round" stroke-linejoin="round" opacity="0.382171" d="M 458.282349 367.758728 C 435.227417 423.418213 461.658661 487.228821 517.318176 510.283752 C 572.977661 533.338684 636.788269 506.90741 659.843201 451.247925 L 706.366882 338.929749 C 717.438293 312.201111 717.438293 282.169128 706.366882 255.440552 C 695.295532 228.711914 674.059692 207.476074 647.331116 196.404724 C 620.602478 185.333374 590.570496 185.333374 563.841858 196.404724 C 537.11322 207.476074 515.877441 228.711914 504.80603 255.440552 Z"/>
                <path id="path6" fill="#000000" fill-rule="evenodd" stroke="#000000" stroke-width="193.927017" stroke-linecap="round" stroke-linejoin="round" opacity="0.382171" d="M 362.605835 565.633179 C 418.26532 588.68811 482.075958 562.256897 505.13089 506.597412 C 528.185791 450.937927 501.754578 387.127258 446.095062 364.072327 L 333.759491 317.541443 C 278.100006 294.486511 214.289352 320.917725 191.234436 376.577209 C 168.17952 432.236694 194.610764 496.047363 250.270248 519.102295 Z"/>
                <path id="path7" fill="#000000" fill-rule="evenodd" stroke="#000000" stroke-width="193.927017" stroke-linecap="round" stroke-linejoin="round" opacity="0.382171" d="M 320.004181 692.297729 C 296.94928 747.957214 323.380493 811.767822 379.039978 834.822754 C 434.699493 857.877686 498.510132 831.446411 521.565063 775.786926 L 568.435852 662.630737 C 579.507202 635.9021 579.507202 605.870117 568.435852 579.141479 C 557.364502 552.412842 536.128662 531.177063 509.400055 520.105713 C 453.74057 497.050781 389.929932 523.482056 366.875 579.141479 Z"/>
                <path id="path8" fill="#000000" fill-rule="evenodd" stroke="#000000" stroke-width="193.927017" stroke-linecap="round" stroke-linejoin="round" opacity="0.382171" d="M 685.736938 709.052734 C 741.396423 732.107666 805.207031 705.676453 828.261963 650.016968 C 851.316895 594.357483 824.88562 530.546875 769.226135 507.491943 L 656.505005 460.80127 C 629.776367 449.729919 599.744385 449.729919 573.015747 460.80127 C 546.287109 471.872681 525.051331 493.108459 513.97998 519.837097 C 490.925049 575.496582 517.356262 639.307251 573.015747 662.362183 Z"/>
            </g>
        </g>
    </g>
</svg>
