<?xml version="1.0" encoding="UTF-8"?>
<!-- Generated by Pixelmator Pro 3.5.7 -->
<svg width="1024" height="1024" viewBox="0 0 1024 1024" xmlns="http://www.w3.org/2000/svg">
    <g id="Group">
        <g id="Group-dark">
            <g id="middle" opacity="0.850973">
                <path id="red-copy-2" fill="#000000" fill-rule="evenodd" stroke="#000000" stroke-width="195.685455" stroke-linecap="round" stroke-linejoin="round" opacity="0.448941" d="M 401.721283 751.717896 C 401.831329 812.509521 451.201843 861.701599 511.993439 861.591553 C 541.186584 861.538696 569.163025 849.891113 589.768372 829.21106 C 610.373657 808.531006 621.919922 780.512573 621.867065 751.319397 L 621.64563 629.016174 C 621.592773 599.822998 609.94519 571.846558 589.265137 551.241211 C 568.585083 530.635986 540.56665 519.089722 511.373505 519.142578 C 450.581909 519.252563 401.389832 568.623169 401.499878 629.414673 Z"/>
                <path id="red-copy" fill="#000000" fill-rule="evenodd" stroke="#000000" stroke-width="195.685455" stroke-linecap="round" stroke-linejoin="round" opacity="0.448941" d="M 403.65152 394.56543 C 403.761566 455.356995 453.13208 504.549133 513.923645 504.439087 C 543.116821 504.38623 571.093262 492.738586 591.698608 472.058533 C 612.303894 451.37854 623.850159 423.360046 623.797302 394.166931 L 623.575867 271.863708 C 623.52301 242.670532 611.875427 214.694092 591.195374 194.088745 C 570.51532 173.483459 542.496887 161.937195 513.303711 161.990051 C 452.512177 162.100098 403.320068 211.470642 403.430115 272.262207 Z"/>
                <path id="red-copy-5" fill="#000000" fill-rule="evenodd" stroke="#000000" stroke-width="195.685455" stroke-linecap="round" stroke-linejoin="round" opacity="0.448941" d="M 394.19339 610.621338 C 454.985077 610.621338 504.266449 561.339966 504.266449 500.548279 C 504.266449 439.756592 454.985077 390.47522 394.19339 390.47522 L 272.073059 390.47522 C 242.879852 390.47522 214.882355 402.072144 194.239655 422.714844 C 173.596954 443.357544 162 471.355103 162 500.548279 C 162 561.339966 211.281403 610.621338 272.07309 610.621338 Z"/>
                <path id="red-copy-3" fill="#000000" fill-rule="evenodd" stroke="#000000" stroke-width="195.685455" stroke-linecap="round" stroke-linejoin="round" opacity="0.448941" d="M 750.463989 629.682373 C 811.255676 629.682373 860.537048 580.401001 860.537048 519.609314 C 860.537048 458.817627 811.255676 409.536255 750.463989 409.536255 L 628.160583 409.536255 C 598.967407 409.536255 570.969849 421.133179 550.327148 441.775879 C 529.684448 462.418579 518.087524 490.416138 518.087524 519.609314 C 518.087524 580.401001 567.368896 629.682373 628.160583 629.682373 Z"/>
            </g>
            <g id="middle-copy" opacity="0.850973">
                <path id="path1" fill="#000000" fill-rule="evenodd" stroke="#000000" stroke-width="195.685455" stroke-linecap="round" stroke-linejoin="round" opacity="0.448941" d="M 501.775696 775.289673 C 525.141296 831.411621 589.578735 857.965942 645.700684 834.600342 C 672.651428 823.379761 694.040955 801.912598 705.163879 774.921448 C 716.286804 747.930298 716.231934 717.626038 705.011353 690.675293 L 658.003418 577.766602 C 646.782837 550.815918 625.315735 529.426331 598.324524 518.303406 C 571.333374 507.180481 541.029114 507.235352 514.07843 518.455933 C 457.956421 541.821533 431.40213 606.258911 454.767731 662.38092 Z"/>
                <path id="path2" fill="#000000" fill-rule="evenodd" stroke="#000000" stroke-width="195.685455" stroke-linecap="round" stroke-linejoin="round" opacity="0.448941" d="M 366.88266 444.585083 C 390.24826 500.707092 454.685699 527.261353 510.807678 503.895752 C 537.758423 492.675232 559.147949 471.208069 570.270874 444.216919 C 581.393738 417.225708 581.338867 386.921509 570.118347 359.970764 L 523.110352 247.062073 C 511.889801 220.111328 490.422668 198.721802 463.431519 187.598877 C 436.440338 176.475952 406.136078 176.530823 379.185364 187.751404 C 323.063385 211.117004 296.509094 275.554382 319.874695 331.676392 Z"/>
                <path id="path3" fill="#000000" fill-rule="evenodd" stroke="#000000" stroke-width="195.685455" stroke-linecap="round" stroke-linejoin="round" opacity="0.448941" d="M 440.825531 647.814209 C 496.989716 624.550232 523.660583 560.161011 500.396637 503.996826 C 477.13266 447.832642 412.743408 421.161743 356.579224 444.425659 L 243.754776 491.159119 C 216.783768 502.330872 195.355408 523.759277 184.18367 550.730225 C 173.011917 577.701172 173.011917 608.005493 184.18367 634.976501 C 207.447632 691.140686 271.836884 717.811584 328.001068 694.547607 Z"/>
                <path id="path4" fill="#000000" fill-rule="evenodd" stroke="#000000" stroke-width="195.685455" stroke-linecap="round" stroke-linejoin="round" opacity="0.448941" d="M 777.270996 529.085449 C 833.435181 505.821472 860.106079 441.432251 836.842102 385.268066 C 813.578125 329.103882 749.188904 302.432983 693.024719 325.69696 L 580.031067 372.500427 C 553.060059 383.67218 531.631714 405.100586 520.459961 432.071533 C 509.288208 459.042542 509.288208 489.346863 520.459961 516.31781 C 543.723938 572.481995 608.113159 599.152893 664.277344 575.888916 Z"/>
            </g>
            <g id="front" opacity="0.850973">
                <path id="blue-copy-2" fill="#000000" fill-rule="evenodd" stroke="#000000" stroke-width="193.927017" stroke-linecap="round" stroke-linejoin="round" opacity="0.382171" d="M 517.570129 358.18158 C 474.970184 400.781494 474.970184 469.849609 517.570129 512.449585 C 560.170044 555.0495 629.238159 555.0495 671.838074 512.449585 L 757.802734 426.484924 C 778.259949 406.02771 789.752686 378.281799 789.752625 349.350952 C 789.752625 320.420105 778.259888 292.674133 757.802734 272.21698 C 737.34552 251.759766 709.599548 240.267029 680.668701 240.267029 C 651.737854 240.267029 623.991943 251.759766 603.534729 272.21698 Z"/>
                <path id="blue-copy" fill="#000000" fill-rule="evenodd" stroke="#000000" stroke-width="193.927017" stroke-linecap="round" stroke-linejoin="round" opacity="0.382171" d="M 353.453247 504.379944 C 396.053192 546.979858 465.121307 546.979858 507.721252 504.379944 C 550.321167 461.780029 550.321167 392.711853 507.721252 350.111938 L 421.743317 264.134033 C 379.143372 221.534058 310.075226 221.534058 267.475311 264.134033 C 224.875381 306.733948 224.875381 375.802063 267.475311 418.401978 Z"/>
                <path id="blue-copy-4" fill="#000000" fill-rule="evenodd" stroke="#000000" stroke-width="193.927017" stroke-linecap="round" stroke-linejoin="round" opacity="0.382171" d="M 265.62204 605.099731 C 223.022125 647.699707 223.022125 716.767822 265.62204 759.367737 C 308.221985 801.967651 377.290131 801.967651 419.890045 759.367737 L 506.496063 672.761719 C 526.953247 652.304565 538.445984 624.558594 538.445984 595.627747 C 538.445984 566.696899 526.953247 538.950928 506.496063 518.493774 C 463.896118 475.893799 394.827972 475.893799 352.228058 518.493774 Z"/>
                <path id="blue-copy-3" fill="#000000" fill-rule="evenodd" stroke="#000000" stroke-width="193.927017" stroke-linecap="round" stroke-linejoin="round" opacity="0.382171" d="M 597.103149 760.539307 C 639.703064 803.13916 708.77124 803.13916 751.371155 760.539307 C 793.971069 717.939331 793.971069 648.871216 751.371155 606.27124 L 665.098145 519.99823 C 644.64093 499.541016 616.894958 488.048279 587.964111 488.048279 C 559.033264 488.048279 531.287292 499.541016 510.830109 519.99823 C 468.230194 562.598145 468.230194 631.666321 510.830109 674.266235 Z"/>
            </g>
            <g id="front-copy" opacity="0.850973">
                <path id="path5" fill="#000000" fill-rule="evenodd" stroke="#000000" stroke-width="193.927017" stroke-linecap="round" stroke-linejoin="round" opacity="0.382171" d="M 458.282349 367.758728 C 435.227417 423.418213 461.658661 487.228821 517.318176 510.283752 C 572.977661 533.338684 636.788269 506.90741 659.843201 451.247925 L 706.366882 338.929749 C 717.438293 312.201111 717.438293 282.169128 706.366882 255.440552 C 695.295532 228.711914 674.059692 207.476074 647.331116 196.404724 C 620.602478 185.333374 590.570496 185.333374 563.841858 196.404724 C 537.11322 207.476074 515.877441 228.711914 504.80603 255.440552 Z"/>
                <path id="path6" fill="#000000" fill-rule="evenodd" stroke="#000000" stroke-width="193.927017" stroke-linecap="round" stroke-linejoin="round" opacity="0.382171" d="M 362.605835 565.633179 C 418.26532 588.68811 482.075958 562.256897 505.13089 506.597412 C 528.185791 450.937927 501.754578 387.127258 446.095062 364.072327 L 333.759491 317.541443 C 278.100006 294.486511 214.289352 320.917725 191.234436 376.577209 C 168.17952 432.236694 194.610764 496.047363 250.270248 519.102295 Z"/>
                <path id="path7" fill="#000000" fill-rule="evenodd" stroke="#000000" stroke-width="193.927017" stroke-linecap="round" stroke-linejoin="round" opacity="0.382171" d="M 320.004181 692.297729 C 296.94928 747.957214 323.380493 811.767822 379.039978 834.822754 C 434.699493 857.877686 498.510132 831.446411 521.565063 775.786926 L 568.435852 662.630737 C 579.507202 635.9021 579.507202 605.870117 568.435852 579.141479 C 557.364502 552.412842 536.128662 531.177063 509.400055 520.105713 C 453.74057 497.050781 389.929932 523.482056 366.875 579.141479 Z"/>
                <path id="path8" fill="#000000" fill-rule="evenodd" stroke="#000000" stroke-width="193.927017" stroke-linecap="round" stroke-linejoin="round" opacity="0.382171" d="M 685.736938 709.052734 C 741.396423 732.107666 805.207031 705.676453 828.261963 650.016968 C 851.316895 594.357483 824.88562 530.546875 769.226135 507.491943 L 656.505005 460.80127 C 629.776367 449.729919 599.744385 449.729919 573.015747 460.80127 C 546.287109 471.872681 525.051331 493.108459 513.97998 519.837097 C 490.925049 575.496582 517.356262 639.307251 573.015747 662.362183 Z"/>
            </g>
        </g>
        <g id="light">
            <g id="g1" opacity="0.850973">
                <path id="path9" fill="#ffffff" fill-rule="evenodd" stroke="#ffffff" stroke-width="148.064346" stroke-linecap="round" stroke-linejoin="round" opacity="0.448941" d="M 423.687714 688.637146 C 423.770966 734.634766 461.126923 771.855713 507.124542 771.772461 C 529.213379 771.732422 550.381592 762.919312 565.972534 747.271912 C 581.563416 731.624451 590.299805 710.424438 590.259827 688.335571 L 590.092285 595.795532 C 590.009033 549.797913 552.653076 512.577026 506.655457 512.660278 C 460.657837 512.74353 423.43692 550.099487 423.520172 596.097046 Z"/>
                <path id="path10" fill="#ffffff" fill-rule="evenodd" stroke="#ffffff" stroke-width="148.064346" stroke-linecap="round" stroke-linejoin="round" opacity="0.448941" d="M 425.148224 418.399658 C 425.231476 464.397278 462.587433 501.618225 508.585052 501.534912 C 530.673889 501.494934 551.842102 492.681824 567.432983 477.034424 C 583.023926 461.386963 591.760315 440.186951 591.720337 418.098083 L 591.552795 325.558044 C 591.469543 279.560425 554.113586 242.339478 508.115967 242.422729 C 462.118347 242.506042 424.89743 279.861938 424.980682 325.859558 Z"/>
                <path id="path11" fill="#ffffff" fill-rule="evenodd" stroke="#ffffff" stroke-width="148.064346" stroke-linecap="round" stroke-linejoin="round" opacity="0.448941" d="M 417.99176 581.877197 C 463.989471 581.877197 501.277954 544.588684 501.277954 498.591003 C 501.277954 452.593323 463.989471 415.30481 417.99176 415.30481 L 325.590088 415.30481 C 303.501221 415.30481 282.317047 424.07959 266.697876 439.698792 C 251.078659 455.317932 242.303894 476.502136 242.303894 498.591003 C 242.303894 544.588684 279.592407 581.877197 325.590088 581.877197 Z"/>
                <path id="path12" fill="#ffffff" fill-rule="evenodd" stroke="#ffffff" stroke-width="148.064346" stroke-linecap="round" stroke-linejoin="round" opacity="0.448941" d="M 687.562012 596.299622 C 733.559692 596.299622 770.848206 559.011108 770.848206 513.013428 C 770.848206 467.015747 733.559692 429.727234 687.562012 429.727234 L 595.02179 429.727234 C 572.932922 429.727234 551.748718 438.502014 536.129517 454.121216 C 520.510315 469.740356 511.735565 490.924561 511.735565 513.013428 C 511.735565 559.011108 549.024048 596.299622 595.02179 596.299622 Z"/>
            </g>
            <g id="g2" opacity="0.850973">
                <path id="path13" fill="#ffffff" fill-rule="evenodd" stroke="#ffffff" stroke-width="148.064346" stroke-linecap="round" stroke-linejoin="round" opacity="0.448941" d="M 499.393341 706.472534 C 517.072815 748.936951 565.829041 769.029114 608.293396 751.34967 C 650.757813 733.670166 670.849976 684.91394 653.170532 642.449585 L 617.602173 557.017822 C 609.112244 536.625732 592.869263 520.441406 572.446533 512.02533 C 552.023804 503.609253 529.094238 503.650757 508.702118 512.140747 C 466.237732 529.82019 446.145569 578.576416 463.825012 621.040771 Z"/>
                <path id="path14" fill="#ffffff" fill-rule="evenodd" stroke="#ffffff" stroke-width="148.064346" stroke-linecap="round" stroke-linejoin="round" opacity="0.448941" d="M 397.327271 456.246765 C 415.006714 498.711121 463.762939 518.803345 506.227325 501.12384 C 548.691711 483.444397 568.783875 434.688171 551.104431 392.223755 L 515.536133 306.791992 C 507.046143 286.399902 490.803162 270.215576 470.380432 261.7995 C 449.957703 253.383423 427.028168 253.424927 406.636047 261.914917 C 364.171631 279.59436 344.079468 328.350586 361.758942 370.815002 Z"/>
                <path id="path15" fill="#ffffff" fill-rule="evenodd" stroke="#ffffff" stroke-width="148.064346" stroke-linecap="round" stroke-linejoin="round" opacity="0.448941" d="M 453.275726 610.018921 C 495.772034 592.416382 515.952454 543.696655 498.349884 501.200317 C 489.89682 480.792847 473.683167 464.579163 453.275726 456.12616 C 432.868256 447.673096 409.93869 447.673096 389.531219 456.12616 L 304.163208 491.486755 C 261.66687 509.089294 241.486481 557.809082 259.08905 600.30542 C 276.691589 642.801758 325.411377 662.982117 367.907715 645.379517 Z"/>
                <path id="path16" fill="#ffffff" fill-rule="evenodd" stroke="#ffffff" stroke-width="148.064346" stroke-linecap="round" stroke-linejoin="round" opacity="0.448941" d="M 707.845337 520.183472 C 750.341675 502.580933 770.522095 453.861145 752.919495 411.364807 C 744.466492 390.957397 728.252808 374.743713 707.845337 366.290649 C 687.437866 357.837646 664.508301 357.837646 644.10083 366.290649 L 558.604858 401.704285 C 516.108521 419.306824 495.928131 468.026611 513.530701 510.522949 C 531.13324 553.019287 579.853027 573.199646 622.349365 555.597107 Z"/>
            </g>
            <g id="g3" opacity="0.850973">
                <path id="path17" fill="#ffffff" fill-rule="evenodd" stroke="#ffffff" stroke-width="146.733841" stroke-linecap="round" stroke-linejoin="round" opacity="0.382171" d="M 511.344086 390.869995 C 479.111084 423.103027 479.111084 475.363037 511.344086 507.596069 C 543.577087 539.829041 595.837158 539.829041 628.070129 507.596069 L 693.114807 442.551392 C 708.593628 427.07251 717.289551 406.078735 717.289551 384.188354 C 717.289551 362.297974 708.593628 341.304138 693.114807 325.825317 C 677.635986 310.346497 656.642151 301.650574 634.75177 301.650574 C 612.861389 301.650574 591.867615 310.346497 576.388794 325.825317 Z"/>
                <path id="path18" fill="#ffffff" fill-rule="evenodd" stroke="#ffffff" stroke-width="146.733841" stroke-linecap="round" stroke-linejoin="round" opacity="0.382171" d="M 387.165955 501.490234 C 419.398956 533.723206 471.658997 533.723206 503.891998 501.490234 C 536.125 469.257202 536.125 416.997192 503.891998 384.76416 L 438.83728 319.709412 C 423.358429 304.230591 402.364624 295.534668 380.474243 295.534668 C 358.583862 295.534668 337.590057 304.230591 322.111206 319.709412 C 289.878204 351.942383 289.878204 404.202454 322.111206 436.435425 Z"/>
                <path id="path19" fill="#ffffff" fill-rule="evenodd" stroke="#ffffff" stroke-width="146.733841" stroke-linecap="round" stroke-linejoin="round" opacity="0.382171" d="M 320.708954 577.699341 C 288.475952 609.932312 288.475952 662.192383 320.708954 694.425354 C 352.941986 726.658325 405.201996 726.658325 437.434998 694.425354 L 502.964966 628.895386 C 518.443787 613.416565 527.139709 592.422729 527.139709 570.532349 C 527.139709 548.641968 518.443787 527.648193 502.964966 512.169312 C 470.731964 479.93634 418.471924 479.93634 386.238922 512.169312 Z"/>
                <path id="path20" fill="#ffffff" fill-rule="evenodd" stroke="#ffffff" stroke-width="146.733841" stroke-linecap="round" stroke-linejoin="round" opacity="0.382171" d="M 571.522339 695.311768 C 603.755371 727.5448 656.015381 727.5448 688.248413 695.311768 C 720.481384 663.078735 720.481384 610.818726 688.248413 578.585693 L 622.970398 513.307739 C 590.737366 481.074707 538.477295 481.074707 506.244324 513.307678 C 474.011292 545.54071 474.011322 597.800781 506.244324 630.033752 Z"/>
            </g>
            <g id="g4" opacity="0.850973">
                <path id="path21" fill="#ffffff" fill-rule="evenodd" stroke="#ffffff" stroke-width="146.733841" stroke-linecap="round" stroke-linejoin="round" opacity="0.382171" d="M 466.484314 398.116455 C 449.039948 440.230957 469.039001 488.512939 511.153442 505.957275 C 553.267944 523.401672 601.549866 503.402649 618.994263 461.288147 L 654.196167 376.303223 C 671.640564 334.188782 651.641479 285.906799 609.527039 268.462402 C 567.412598 251.018005 519.130615 271.01709 501.686249 313.131531 Z"/>
                <path id="path22" fill="#ffffff" fill-rule="evenodd" stroke="#ffffff" stroke-width="146.733841" stroke-linecap="round" stroke-linejoin="round" opacity="0.382171" d="M 394.091217 547.837158 C 436.205658 565.281494 484.48764 545.282471 501.932007 503.16803 C 519.376404 461.053589 499.37735 412.771606 457.262909 395.327209 L 372.264771 360.119873 C 352.04071 351.742737 329.317169 351.742737 309.093109 360.119873 C 288.869019 368.496948 272.801056 384.56488 264.42395 404.78894 C 246.979584 446.903442 266.978638 495.185425 309.093079 512.629761 Z"/>
                <path id="path23" fill="#ffffff" fill-rule="evenodd" stroke="#ffffff" stroke-width="146.733841" stroke-linecap="round" stroke-linejoin="round" opacity="0.382171" d="M 361.856903 643.677124 C 344.412537 685.791626 364.411591 734.073608 406.526031 751.517944 C 448.640503 768.962341 496.922455 748.963318 514.366821 706.848877 L 549.831421 621.229858 C 558.208496 601.005737 558.208496 578.282227 549.831421 558.058167 C 541.454285 537.834106 525.386353 521.766113 505.162292 513.389038 C 463.047821 495.944641 414.765839 515.943726 397.321472 558.058105 Z"/>
                <path id="path24" fill="#ffffff" fill-rule="evenodd" stroke="#ffffff" stroke-width="146.733841" stroke-linecap="round" stroke-linejoin="round" opacity="0.382171" d="M 638.586609 656.354797 C 680.70105 673.799194 728.983032 653.800171 746.427429 611.685669 C 763.871765 569.571167 743.872742 521.289246 701.758301 503.844849 L 616.468445 468.516663 C 574.354004 451.072266 526.072021 471.07135 508.627625 513.185791 C 491.183228 555.300232 511.182312 603.582214 553.296753 621.026611 Z"/>
            </g>
        </g>
    </g>
</svg>
